<svg width="384.027587890625px" height="140px" xmlns="http://www.w3.org/2000/svg" viewBox="57.9862060546875 5 384.027587890625 140" style="background: none;" preserveAspectRatio="xMidYMid"><defs><filter id="editing-extrusion" x="-100%" y="-100%" width="300%" height="300%"><feFlood result="color1" flood-color="#182731"></feFlood><feConvolveMatrix order="8,8" divisor="1" kernelMatrix="1 0 0 0 0 0 0 0 0 1 0 0 0 0 0 0 0 0 1 0 0 0 0 0 0 0 0 1 0 0 0 0 0 0 0 0 1 0 0 0 0 0 0 0 0 1 0 0 0 0 0 0 0 0 1 0 0 0 0 0 0 0 0 1" in="SourceAlpha" result="extrude"></feConvolveMatrix><feComposite in="color1" in2="extrude" result="comp-extrude" operator="in"></feComposite><feOffset dx="4" dy="4" in="comp-extrude" result="offset-extrude"></feOffset><feMerge><feMergeNode in="offset-extrude"></feMergeNode><feMergeNode in="SourceGraphic"></feMergeNode></feMerge></filter></defs><g filter="url(#editing-extrusion)"><g transform="translate(118.57020235061646, 98.87500381469727)"><path d="M3.84-0.83L3.84-0.83L3.84-0.83Q3.39 0.58 1.82 0.58L1.82 0.58L1.82 0.58Q0.26 0.58-1.73-1.15L-1.73-1.15L-1.73-1.15Q0.19-6.78 6.40-19.30L6.40-19.30L6.40-19.30Q12.61-31.81 14.46-38.02L14.46-38.02L14.46-38.02Q14.72-39.04 14.72-39.42L14.72-39.42L14.72-39.42Q14.72-40.38 13.31-42.37L13.31-42.37L12.80-43.07L12.93-43.90L12.93-43.90Q18.37-45.44 24.96-45.44L24.96-45.44L28.86-45.18L28.86-45.18Q29.57-44.22 29.95-42.24L29.95-42.24L29.95-42.24Q30.98-37.38 30.98-17.22L30.98-17.22L30.98-17.22Q30.98-9.41 32.32-6.21L32.32-6.21L32.32-6.21Q32.83-4.99 33.34-4.99L33.34-4.99L33.34-4.99Q33.86-4.99 36.48-6.27L36.48-6.27L37.31-6.66L38.59-4.35L38.59-4.35Q36.16-1.98 33.18-0.61L33.18-0.61L33.18-0.61Q30.21 0.77 27.71 0.77L27.71 0.77L27.71 0.77Q21.25 0.77 21.25-9.28L21.25-9.28L21.25-14.34L21.25-14.34Q19.58-14.72 16.19-14.72L16.19-14.72L16.19-14.72Q12.80-14.72 8.77-14.08L8.77-14.08L8.77-14.08Q5.57-6.66 3.84-0.83ZM10.82-18.69L21.38-18.69L21.44-26.11L21.44-26.11Q21.44-35.84 20.61-39.30L20.61-39.30L20.61-39.30Q20.10-39.30 19.84-39.17L19.84-39.17L19.84-39.17Q18.05-34.24 16.48-30.82L16.48-30.82L16.48-30.82Q14.91-27.39 13.09-23.52L13.09-23.52L13.09-23.52Q11.26-19.65 10.82-18.69L10.82-18.69ZM43.74 0.77L43.74 0.77L43.74 0.77Q41.54 0.77 40.10-0.70L40.10-0.70L40.10-0.70Q38.66-2.18 38.66-4.83L38.66-4.83L38.66-4.83Q38.66-7.49 41.82-21.79L41.82-21.79L41.82-21.79Q44.99-36.10 44.99-42.43L44.99-42.43L44.61-45.25L44.61-45.25Q49.60-46.98 53.95-46.98L53.95-46.98L53.95-46.98Q54.59-46.08 54.59-43.84L54.59-43.84L54.59-43.84Q54.59-38.72 51.36-24.03L51.36-24.03L51.36-24.03Q48.13-9.34 48.13-6.94L48.13-6.94L48.13-6.94Q48.13-4.54 48.70-4.54L48.70-4.54L53.18-6.14L54.34-3.90L54.34-3.90Q52.16-2.18 49.06-0.70L49.06-0.70L49.06-0.70Q45.95 0.77 43.74 0.77ZM64.77 0.77L64.77 0.77L64.77 0.77Q60.35 0.77 57.86-2.34L57.86-2.34L57.86-2.34Q55.36-5.44 55.36-11.01L55.36-11.01L55.36-11.01Q55.36-18.11 59.17-23.23L59.17-23.23L59.17-23.23Q62.98-28.35 69.70-28.35L69.70-28.35L72-28.22L72-28.22Q73.09-28.80 74.43-28.80L74.43-28.80L74.43-28.80Q79.49-28.80 79.49-19.26L79.49-19.26L79.49-19.26Q82.11-19.39 84.80-19.97L84.80-19.97L85.82-20.22L86.21-17.73L86.21-17.73Q84.10-16.83 80.51-16.13L80.51-16.13L79.23-15.87L79.23-15.87Q78.02-9.15 74.30-4.19L74.30-4.19L74.30-4.19Q70.59 0.77 64.77 0.77ZM68.22-4.74L68.22-4.74L68.22-4.74Q70.91-4.74 73.06-8.19L73.06-8.19L73.06-8.19Q75.20-11.65 76.03-15.49L76.03-15.49L76.03-15.49Q69.18-15.49 69.18-20.61L69.18-20.61L69.18-20.61Q69.18-22.66 70.02-24.45L70.02-24.45L70.34-25.09L70.34-25.09Q70.08-25.22 69.70-25.22L69.70-25.22L69.70-25.22Q69.31-25.22 69.12-25.09L69.12-25.09L69.12-25.09Q67.52-24.06 66.11-20.29L66.11-20.29L66.11-20.29Q64.70-16.51 64.70-11.65L64.70-11.65L64.70-11.65Q64.70-4.74 68.22-4.74ZM89.47-42.24L89.47-42.24L89.47-42.24Q89.47-44.35 89.09-45.25L89.09-45.25L89.09-45.25Q94.08-46.98 98.50-46.98L98.50-46.98L98.50-46.98Q99.07-46.40 99.07-44.03L99.07-44.03L99.07-44.03Q99.07-39.81 95.49-24.58L95.49-24.58L95.49-24.58Q100.67-28.35 104.58-28.35L104.58-28.35L104.58-28.35Q107.01-28.35 108.26-26.82L108.26-26.82L108.26-26.82Q109.50-25.28 109.50-22.75L109.50-22.75L109.50-22.75Q109.50-20.22 108.03-14.50L108.03-14.50L108.03-14.50Q106.56-8.77 106.56-6.66L106.56-6.66L106.56-6.66Q106.56-4.54 107.07-4.54L107.07-4.54L107.07-4.54Q107.58-4.54 109.76-5.70L109.76-5.70L110.53-6.08L111.68-3.84L111.68-3.84Q111.10-3.33 110.14-2.56L110.14-2.56L110.14-2.56Q109.18-1.79 106.62-0.51L106.62-0.51L106.62-0.51Q104.06 0.77 101.92 0.77L101.92 0.77L101.92 0.77Q99.78 0.77 98.50-0.61L98.50-0.61L98.50-0.61Q97.22-1.98 97.22-4.32L97.22-4.32L97.22-4.32Q97.22-6.66 98.66-12.83L98.66-12.83L98.66-12.83Q100.10-19.01 100.10-20.64L100.10-20.64L100.10-20.64Q100.10-22.27 98.75-22.27L98.75-22.27L98.75-22.27Q97.09-22.27 94.59-20.86L94.59-20.86L94.59-20.86Q91.07-5.38 91.07-0.77L91.07-0.77L91.07-0.77Q88.38 0.26 81.92 0.26L81.92 0.26L81.92 0.26Q81.86-0.83 81.86-1.66L81.86-1.66L81.86-1.66Q81.86-4.42 85.66-20.48L85.66-20.48L85.66-20.48Q89.47-36.54 89.47-42.24ZM122.69 0.77L122.69 0.77L122.69 0.77Q118.27 0.77 115.78-2.34L115.78-2.34L115.78-2.34Q113.28-5.44 113.28-11.01L113.28-11.01L113.28-11.01Q113.28-18.11 117.09-23.23L117.09-23.23L117.09-23.23Q120.90-28.35 127.62-28.35L127.62-28.35L129.92-28.22L129.92-28.22Q131.01-28.80 132.35-28.80L132.35-28.80L132.35-28.80Q137.41-28.80 137.41-19.26L137.41-19.26L137.41-19.26Q140.03-19.39 142.72-19.97L142.72-19.97L143.74-20.22L144.13-17.73L144.13-17.73Q142.02-16.83 138.43-16.13L138.43-16.13L137.15-15.87L137.15-15.87Q135.94-9.15 132.22-4.19L132.22-4.19L132.22-4.19Q128.51 0.77 122.69 0.77ZM126.14-4.74L126.14-4.74L126.14-4.74Q128.83-4.74 130.98-8.19L130.98-8.19L130.98-8.19Q133.12-11.65 133.95-15.49L133.95-15.49L133.95-15.49Q127.10-15.49 127.10-20.61L127.10-20.61L127.10-20.61Q127.10-22.66 127.94-24.45L127.94-24.45L128.26-25.09L128.26-25.09Q128-25.22 127.62-25.22L127.62-25.22L127.62-25.22Q127.23-25.22 127.04-25.09L127.04-25.09L127.04-25.09Q125.44-24.06 124.03-20.29L124.03-20.29L124.03-20.29Q122.62-16.51 122.62-11.65L122.62-11.65L122.62-11.65Q122.62-4.74 126.14-4.74ZM140.48 0.19L140.48 0.19L139.26 0.19L139.26 0.19Q139.26-2.82 141.09-11.33L141.09-11.33L141.09-11.33Q142.91-19.84 142.91-20.99L142.91-20.99L142.91-20.99Q142.91-23.10 141.12-25.47L141.12-25.47L140.54-26.24L140.61-27.07L140.61-27.07Q144.06-28.03 151.68-28.03L151.68-28.03L151.68-28.03Q152.58-26.82 152.58-24.06L152.58-24.06L152.58-24.06Q158.34-28.35 161.73-28.35L161.73-28.35L161.73-28.35Q166.02-28.35 166.78-23.94L166.78-23.94L166.78-23.94Q168.51-25.34 171.30-26.85L171.30-26.85L171.30-26.85Q174.08-28.35 176.29-28.35L176.29-28.35L176.29-28.35Q178.50-28.35 179.97-26.91L179.97-26.91L179.97-26.91Q181.44-25.47 181.44-22.91L181.44-22.91L181.44-22.91Q181.44-20.35 180.03-14.46L180.03-14.46L180.03-14.46Q178.62-8.58 178.62-6.56L178.62-6.56L178.62-6.56Q178.62-4.54 179.20-4.54L179.20-4.54L179.20-4.54Q179.58-4.54 181.82-5.76L181.82-5.76L182.53-6.14L183.68-3.90L183.68-3.90Q182.02-2.24 179.17-0.74L179.17-0.74L179.17-0.74Q176.32 0.77 174.14 0.77L174.14 0.77L174.14 0.77Q169.34 0.77 169.34-4.67L169.34-4.67L169.34-4.67Q169.34-6.66 170.72-12.64L170.72-12.64L170.72-12.64Q172.10-18.62 172.10-20.45L172.10-20.45L172.10-20.45Q172.10-22.27 171.01-22.27L171.01-22.27L171.01-22.27Q169.15-22.27 166.78-20.86L166.78-20.86L166.78-20.86Q166.66-19.58 165.02-12.16L165.02-12.16L165.02-12.16Q163.39-4.74 163.39-0.64L163.39-0.64L163.39-0.64Q161.54 0.19 154.69 0.19L154.69 0.19L154.69 0.19Q154.56-0.51 154.56-3.20L154.56-3.20L154.56-3.20Q154.56-5.89 156.06-12.35L156.06-12.35L156.06-12.35Q157.57-18.82 157.57-20.54L157.57-20.54L157.57-20.54Q157.57-22.27 156.35-22.27L156.35-22.27L156.35-22.27Q154.43-22.27 152.13-20.74L152.13-20.74L152.13-20.74Q152.00-20.16 150.85-15.10L150.85-15.10L150.85-15.10Q148.54-4.99 148.54-0.70L148.54-0.70L148.54-0.70Q146.30 0.19 140.48 0.19ZM194.69 0.77L194.69 0.77L194.69 0.77Q190.27 0.77 187.78-2.34L187.78-2.34L187.78-2.34Q185.28-5.44 185.28-11.01L185.28-11.01L185.28-11.01Q185.28-18.11 189.09-23.23L189.09-23.23L189.09-23.23Q192.90-28.35 199.62-28.35L199.62-28.35L201.92-28.22L201.92-28.22Q203.01-28.80 204.35-28.80L204.35-28.80L204.35-28.80Q209.41-28.80 209.41-19.26L209.41-19.26L209.41-19.26Q212.03-19.39 214.72-19.97L214.72-19.97L215.74-20.22L216.13-17.73L216.13-17.73Q214.02-16.83 210.43-16.13L210.43-16.13L209.15-15.87L209.15-15.87Q207.94-9.15 204.22-4.19L204.22-4.19L204.22-4.19Q200.51 0.77 194.69 0.77ZM198.14-4.74L198.14-4.74L198.14-4.74Q200.83-4.74 202.98-8.19L202.98-8.19L202.98-8.19Q205.12-11.65 205.95-15.49L205.95-15.49L205.95-15.49Q199.10-15.49 199.10-20.61L199.10-20.61L199.10-20.61Q199.10-22.66 199.94-24.45L199.94-24.45L200.26-25.09L200.26-25.09Q200.00-25.22 199.62-25.22L199.62-25.22L199.62-25.22Q199.23-25.22 199.04-25.09L199.04-25.09L199.04-25.09Q197.44-24.06 196.03-20.29L196.03-20.29L196.03-20.29Q194.62-16.51 194.62-11.65L194.62-11.65L194.62-11.65Q194.62-4.74 198.14-4.74ZM212.29 0.19L212.29 0.19L211.84 0.19L211.84 0.19Q211.71-0.32 211.71-2.14L211.71-2.14L211.71-2.14Q211.71-3.97 213.44-11.97L213.44-11.97L213.44-11.97Q215.17-19.97 215.17-21.12L215.17-21.12L215.17-21.12Q215.17-23.10 213.38-25.47L213.38-25.47L212.80-26.24L212.86-27.07L212.86-27.07Q216.32-28.03 223.94-28.03L223.94-28.03L223.94-28.03Q224.70-26.37 224.70-23.36L224.70-23.36L224.70-23.36Q225.41-24.51 227.65-26.43L227.65-26.43L227.65-26.43Q229.89-28.35 232.26-28.35L232.26-28.35L232.26-28.35Q235.71-28.35 235.71-22.34L235.71-22.34L235.71-22.34Q235.39-21.95 234.85-21.34L234.85-21.34L234.85-21.34Q234.30-20.74 232.67-19.65L232.67-19.65L232.67-19.65Q231.04-18.56 229.50-18.30L229.50-18.30L229.50-18.30Q229.44-18.30 228.42-20.03L228.42-20.03L228.42-20.03Q227.39-21.76 226.88-21.76L226.88-21.76L226.88-21.76Q225.28-21.18 224.06-19.84L224.06-19.84L224.06-19.84Q221.12-6.59 221.12-2.69L221.12-2.69L221.12-2.69Q221.12-1.28 221.18-0.70L221.18-0.70L221.18-0.70Q218.94 0.19 212.29 0.19ZM253.38-26.50L253.38-26.50L253.38-26.50Q253.50-26.62 254.08-28.16L254.08-28.16L254.08-28.16Q257.09-28.16 262.14-26.37L262.14-26.37L262.14-26.37Q260.54-21.06 259.58-15.26L259.58-15.26L259.58-15.26Q258.62-9.47 258.62-7.01L258.62-7.01L258.62-7.01Q258.62-4.54 259.14-4.54L259.14-4.54L259.14-4.54Q259.52-4.54 261.95-5.76L261.95-5.76L262.72-6.14L263.87-3.90L263.87-3.90Q263.30-3.39 262.37-2.62L262.37-2.62L262.37-2.62Q261.44-1.86 258.88-0.54L258.88-0.54L258.88-0.54Q256.32 0.77 254.27 0.77L254.27 0.77L254.27 0.77Q250.30 0.77 249.66-2.82L249.66-2.82L249.66-2.82Q245.57 0.77 242.27 0.77L242.27 0.77L242.27 0.77Q238.98 0.77 236.70-1.79L236.70-1.79L236.70-1.79Q234.43-4.35 234.43-9.86L234.43-9.86L234.43-9.86Q234.43-18.43 237.95-23.39L237.95-23.39L237.95-23.39Q241.47-28.35 246.46-28.35L246.46-28.35L246.46-28.35Q250.05-28.35 253.38-26.50ZM246.08-4.67L246.08-4.67L246.08-4.67Q247.62-4.67 249.54-5.89L249.54-5.89L249.54-5.89Q249.98-14.91 252.54-23.74L252.54-23.74L252.54-23.74Q250.62-24.58 249.28-24.58L249.28-24.58L249.28-24.58Q246.98-24.58 245.34-20.06L245.34-20.06L245.34-20.06Q243.71-15.55 243.71-10.11L243.71-10.11L243.71-10.11Q243.71-4.67 246.08-4.67Z" fill="#bc5fed"></path></g></g><style>text {
  font-size: 64px;
  font-family: Arial Black;
  dominant-baseline: central;
  text-anchor: middle;
}</style></svg>